<svg width="22" height="23" viewBox="0 0 22 23" fill="none" xmlns="http://www.w3.org/2000/svg">
<path d="M5.6366 6.44099C5.6366 5.82037 6.11694 5.31714 6.70937 5.31714H8.85457C9.447 5.31714 9.92734 5.82037 9.92734 6.44099V7.955C9.92734 8.57564 9.447 9.07885 8.85457 9.07885H6.70937C6.11694 9.07885 5.6366 8.57564 5.6366 7.955V6.44099Z" fill="black"/>
<path d="M5.6366 15.971C5.6366 15.3504 6.11694 14.8472 6.70937 14.8472H8.85457C9.447 14.8472 9.92734 15.3504 9.92734 15.971V17.485C9.92734 18.1057 9.447 18.6089 8.85457 18.6089H6.70937C6.11694 18.6089 5.6366 18.1057 5.6366 17.485V15.971Z" fill="black"/>
<path d="M12.1667 6.44099C12.1667 5.82037 12.647 5.31714 13.2394 5.31714H15.3846C15.9771 5.31714 16.4574 5.82037 16.4574 6.44099V7.955C16.4574 8.57564 15.9771 9.07885 15.3846 9.07885H13.2394C12.647 9.07885 12.1667 8.57564 12.1667 7.955V6.44099Z" fill="black"/>
<path d="M12.1667 15.971C12.1667 15.3504 12.647 14.8472 13.2394 14.8472H15.3846C15.9771 14.8472 16.4574 15.3504 16.4574 15.971V17.485C16.4574 18.1057 15.9771 18.6089 15.3846 18.6089H13.2394C12.647 18.6089 12.1667 18.1057 12.1667 17.485V15.971Z" fill="black"/>
<path fill-rule="evenodd" clip-rule="evenodd" d="M2.565 11.9139C2.565 11.4887 2.89407 11.1439 3.3 11.1439H18.8167C19.2226 11.1439 19.5517 11.4887 19.5517 11.9139C19.5517 12.3392 19.2226 12.6839 18.8167 12.6839H3.3C2.89407 12.6839 2.565 12.3392 2.565 11.9139Z" fill="black"/>
<path fill-rule="evenodd" clip-rule="evenodd" d="M3.19869 0.913818C1.70825 0.913818 0.5 2.17959 0.5 3.741V7.31657C0.5 7.74955 0.835048 8.10057 1.24835 8.10057C1.66165 8.10057 1.99669 7.74955 1.99669 7.31657V3.741C1.99669 3.04556 2.53485 2.48178 3.19869 2.48178H6.61175C7.02505 2.48178 7.36012 2.13078 7.36012 1.6978C7.36012 1.26482 7.02505 0.913818 6.61175 0.913818H3.19869Z" fill="black"/>
<path fill-rule="evenodd" clip-rule="evenodd" d="M3.19869 22.9138C1.70825 22.9138 0.5 21.648 0.5 20.0866V16.511C0.5 16.078 0.835048 15.7271 1.24835 15.7271C1.66165 15.7271 1.99669 16.078 1.99669 16.511V20.0866C1.99669 20.7821 2.53485 21.3458 3.19869 21.3458H6.61175C7.02505 21.3458 7.36012 21.6968 7.36012 22.1298C7.36012 22.5628 7.02505 22.9138 6.61175 22.9138H3.19869Z" fill="black"/>
<path fill-rule="evenodd" clip-rule="evenodd" d="M18.8013 0.913818C20.2918 0.913818 21.5 2.17959 21.5 3.741V7.31657C21.5 7.74955 21.165 8.10057 20.7517 8.10057C20.3384 8.10057 20.0033 7.74955 20.0033 7.31657V3.741C20.0033 3.04556 19.4652 2.48178 18.8013 2.48178H15.3883C14.975 2.48178 14.6399 2.13078 14.6399 1.6978C14.6399 1.26482 14.975 0.913818 15.3883 0.913818H18.8013Z" fill="black"/>
<path fill-rule="evenodd" clip-rule="evenodd" d="M18.8013 22.9138C20.2918 22.9138 21.5 21.648 21.5 20.0866V16.511C21.5 16.078 21.165 15.7271 20.7517 15.7271C20.3384 15.7271 20.0033 16.078 20.0033 16.511V20.0866C20.0033 20.7821 19.4652 21.3458 18.8013 21.3458H15.3883C14.975 21.3458 14.6399 21.6968 14.6399 22.1298C14.6399 22.5628 14.975 22.9138 15.3883 22.9138H18.8013Z" fill="black"/>
</svg>
