<svg width="21" height="25" viewBox="0 0 21 25" fill="none" xmlns="http://www.w3.org/2000/svg">
<path d="M20.0308 6.21187C19.9911 6.17221 19.9911 6.13228 19.9512 6.09262L14.1069 0.208361C14.0673 0.168704 14.0273 0.128769 13.9877 0.128769C13.9084 0.0891113 13.8684 0.0891113 13.8288 0.0891113H1.78238C1.34503 0.0891113 0.987305 0.446861 0.987305 0.884182V23.9433C0.987305 24.3806 1.34505 24.7384 1.78238 24.7384H19.2755C19.7128 24.7384 20.0706 24.3806 20.0706 23.9433V6.37066C20.0706 6.29134 20.0705 6.25153 20.0308 6.21187ZM14.2261 1.44109L18.7188 5.93371L14.6238 5.93344C14.3853 5.93344 14.2261 5.77453 14.2261 5.53575L14.2261 1.44109ZM19.2754 23.9436H1.78224V0.884495H13.4311V5.57569C13.4311 6.25152 13.948 6.76847 14.6238 6.76847H19.2754L19.2754 23.9436ZM16.8901 9.55154H6.55323C6.31473 9.55154 6.15555 9.39263 6.15555 9.15385C6.15555 8.91535 6.31446 8.75617 6.55323 8.75617H16.8901C17.1286 8.75617 17.2878 8.91508 17.2878 9.15385C17.2875 9.39263 17.1286 9.55154 16.8901 9.55154ZM16.8901 13.4477H4.16781C3.92931 13.4477 3.77012 13.2888 3.77012 13.05C3.77012 12.8115 3.92903 12.6523 4.16781 12.6523H16.8901C17.1286 12.6523 17.2878 12.8112 17.2878 13.05C17.2878 13.2888 17.1288 13.4477 16.8903 13.4477H16.8901ZM16.8901 17.3041H4.16781C3.92931 17.3041 3.77012 17.1452 3.77012 16.9064C3.77012 16.6679 3.92903 16.5087 4.16781 16.5087H16.8901C17.1286 16.5087 17.2878 16.6676 17.2878 16.9064C17.2878 17.1452 17.1288 17.3041 16.8903 17.3041H16.8901ZM16.8901 21.2005H4.16781C3.92931 21.2005 3.77012 21.0416 3.77012 20.8028C3.77012 20.5643 3.92903 20.4051 4.16781 20.4051H16.8901C17.1286 20.4051 17.2878 20.564 17.2878 20.8028C17.2878 21.0413 17.1288 21.2005 16.8903 21.2005H16.8901Z" fill="black"/>
</svg>
