<svg width="9" height="25" viewBox="0 0 9 25" fill="none" xmlns="http://www.w3.org/2000/svg">
<path d="M4.33691 24.4138C6.54191 24.4138 8.33691 22.6188 8.33691 20.4138V6.91382C8.33691 6.74382 8.25191 6.58382 8.10691 6.49382L6.77191 5.63882V1.41382H7.33691C7.61191 1.41382 7.83691 1.18882 7.83691 0.913818C7.83691 0.638818 7.61191 0.413818 7.33691 0.413818H1.33691C1.06191 0.413818 0.836914 0.638818 0.836914 0.913818C0.836914 1.18882 1.06191 1.41382 1.33691 1.41382H1.83691V5.64382L0.561914 6.49882C0.421914 6.58882 0.336914 6.74882 0.336914 6.91382V20.4138C0.336914 22.6188 2.13191 24.4138 4.33691 24.4138ZM1.33691 11.9138H7.33691V20.4138C7.33691 22.0688 5.99191 23.4138 4.33691 23.4138C2.68191 23.4138 1.33691 22.0688 1.33691 20.4138V11.9138Z" fill="black"/>
</svg>
