<svg width="27" height="29" viewBox="0 0 27 29" fill="none" xmlns="http://www.w3.org/2000/svg">
<path d="M23.692 4.25955L18.306 1.90359C18.2942 1.89836 18.2833 1.8927 18.2711 1.88834L14.8299 0.383313C14.2616 0.135087 13.6097 0.135087 13.041 0.383313L4.17888 4.25955C4.02037 4.3288 3.91803 4.48557 3.91803 4.65846V15.8526C3.91803 16.5014 4.30213 17.0889 4.89656 17.3489L13.041 20.9125C13.3236 21.0366 13.6276 21.098 13.9311 21.0988C13.9324 21.0988 13.9337 21.0997 13.9355 21.0997C13.9372 21.0997 13.9381 21.0988 13.9398 21.0988C14.2434 21.0984 14.5473 21.0361 14.8304 20.9125L22.9744 17.3489C23.5688 17.0889 23.9533 16.5019 23.9533 15.8526V4.65846C23.9533 4.48557 23.8506 4.3288 23.692 4.25955ZM13.3902 8.13536L9.6294 6.49054L18.1235 2.77412L22.4313 4.65846L14.4816 8.13536C14.1345 8.28691 13.7373 8.28691 13.3907 8.13536H13.3902ZM13.3898 1.18112C13.7369 1.02957 14.134 1.02957 14.4807 1.18112L17.0365 2.29901L8.54243 6.01543L5.44005 4.65846L13.3898 1.18112ZM5.24538 16.5511C4.96798 16.43 4.789 16.1557 4.789 15.8526V5.32431L8.11 6.77665V11.6245C8.11 11.8653 8.30509 12.0599 8.54548 12.0599C8.78587 12.0599 8.98096 11.8653 8.98096 11.6245V7.1577L13.041 8.9336C13.189 8.99849 13.3432 9.04465 13.5 9.07557V20.1495C13.4634 20.1373 13.4255 20.1299 13.3898 20.1147L5.24538 16.5511ZM22.6255 16.5511L14.4816 20.1147C14.4459 20.1303 14.408 20.1373 14.3714 20.1495V9.07557C14.5282 9.04465 14.6823 8.99849 14.8304 8.9336L23.0824 5.32431V15.8526C23.0824 16.1552 22.9029 16.4296 22.6255 16.5511Z" fill="black"/>
<path d="M17.0614 16.7771L15.5577 17.4351C15.3373 17.5318 15.2367 17.7883 15.3334 18.0082C15.4048 18.172 15.5646 18.2695 15.7327 18.2695C15.7911 18.2695 15.8503 18.2582 15.9069 18.2329L17.4107 17.5749C17.631 17.4782 17.7316 17.2217 17.6349 17.0018C17.5387 16.7815 17.2818 16.68 17.0614 16.7771Z" fill="black"/>
<path d="M5.3186 24.2102C5.04246 24.2102 4.8186 24.4341 4.8186 24.7102C4.8186 24.9863 5.04246 25.2102 5.3186 25.2102L5.3186 24.2102ZM22.9062 25.0638C23.1014 24.8685 23.1014 24.5519 22.9062 24.3567L19.7242 21.1747C19.5289 20.9794 19.2123 20.9794 19.0171 21.1747C18.8218 21.3699 18.8218 21.6865 19.0171 21.8818L21.8455 24.7102L19.0171 27.5386C18.8218 27.7339 18.8218 28.0505 19.0171 28.2457C19.2123 28.441 19.5289 28.441 19.7242 28.2457L22.9062 25.0638ZM5.3186 25.2102L22.5526 25.2102L22.5526 24.2102L5.3186 24.2102L5.3186 25.2102Z" fill="black"/>
</svg>
